<svg width="501" height="371" viewBox="0 0 501 371" fill="none" xmlns="http://www.w3.org/2000/svg">
<path fill-rule="evenodd" clip-rule="evenodd" d="M250.261 370.58C352.375 370.58 435.155 287.8 435.155 185.686C435.155 83.5719 352.375 0.791992 250.261 0.791992C148.147 0.791992 65.3672 83.5719 65.3672 185.686C65.3672 287.8 148.147 370.58 250.261 370.58ZM205.922 28.4936C230.464 21.8878 255.794 20.9463 280.137 25.2043C261.5 37.1028 249.33 48.1851 238.552 57.999C236.683 59.7014 234.855 61.3656 233.043 62.9893C220.307 74.4014 207.994 84.2217 185.008 92.6255C188.187 71.8 193.217 56.029 197.737 45.0421C200.583 38.1259 203.233 33.0885 205.106 29.8664C205.398 29.365 205.67 28.9075 205.922 28.4936ZM177.616 39.5027C155.606 50.7408 135.935 66.7267 120.301 86.764C120.348 87.246 120.406 87.7756 120.474 88.3515C120.915 92.0525 121.827 97.6709 123.714 104.908C126.71 116.404 132.176 132.029 142.16 150.58C155.471 130.042 159.402 114.791 162.715 98.0133C163.186 95.6262 163.645 93.1975 164.115 90.7131L164.115 90.7128L164.115 90.7125C166.823 76.3904 169.882 60.2173 177.616 39.5027ZM104.838 111.53C93.8524 133.666 87.5725 158.223 86.948 183.631C87.2735 183.99 87.6349 184.381 88.033 184.803C90.5917 187.513 94.6708 191.483 100.496 196.173C109.751 203.622 123.448 212.918 142.517 221.873C140.976 197.447 135.05 182.855 127.718 167.405C126.675 165.207 125.597 162.982 124.495 160.707L124.495 160.707C118.14 147.589 110.964 132.776 104.838 111.53ZM88.7123 209.115C92.5252 233.531 101.578 257.207 115.74 278.311C116.213 278.416 116.734 278.527 117.302 278.641C120.956 279.377 126.579 280.262 134.043 280.727C145.9 281.466 162.451 281.146 183.19 277.446C167.828 258.393 154.564 249.902 139.657 241.521C137.536 240.329 135.371 239.135 133.157 237.914C120.394 230.874 105.982 222.924 88.7123 209.115ZM220.386 346.168C244.729 350.426 270.059 349.484 294.601 342.879C294.852 342.465 295.125 342.007 295.417 341.506C297.29 338.284 299.94 333.246 302.785 326.33C307.305 315.343 312.335 299.572 315.515 278.747C292.529 287.15 280.216 296.971 267.48 308.383C265.667 310.007 263.84 311.671 261.97 313.373C251.193 323.187 239.023 334.269 220.386 346.168ZM380.222 284.608C364.588 304.645 344.916 320.631 322.907 331.869C330.641 311.154 333.7 294.981 336.408 280.659L336.411 280.642L336.417 280.612C336.884 278.144 337.34 275.731 337.808 273.359C341.121 256.581 345.052 241.33 358.363 220.792C368.347 239.343 373.813 254.968 376.809 266.464C378.696 273.701 379.608 279.319 380.049 283.02C380.118 283.596 380.175 284.126 380.222 284.608ZM395.684 259.842C406.67 237.706 412.95 213.149 413.575 187.741C413.249 187.382 412.888 186.991 412.49 186.569C409.931 183.859 405.852 179.889 400.026 175.2C390.772 167.75 377.075 158.454 358.006 149.5C359.546 173.925 365.472 188.517 372.804 203.967C373.845 206.159 374.919 208.377 376.018 210.646L376.028 210.665C382.383 223.783 389.559 238.596 395.684 259.842ZM384.783 93.061C398.945 114.165 407.998 137.841 411.811 162.258C394.542 148.449 380.129 140.499 367.366 133.458L367.365 133.458L367.363 133.457L367.357 133.453C365.146 132.234 362.984 131.042 360.866 129.851C345.959 121.471 332.695 112.979 317.333 93.9266C338.072 90.2263 354.622 89.9064 366.48 90.645C373.944 91.1099 379.567 91.9956 383.221 92.7308C383.789 92.8452 384.31 92.956 384.783 93.061ZM195.556 339.578C171.712 330.779 150.5 316.902 133.1 299.354C155.186 300.421 171.523 298.415 185.991 296.638L186.001 296.637L186.015 296.635L186.024 296.634L186.039 296.633L186.047 296.631L186.063 296.63L186.074 296.628L186.09 296.626C188.565 296.322 190.986 296.025 193.371 295.752C210.361 293.804 226.085 292.911 249.699 299.344C235.064 314.497 221.842 324.457 211.801 330.808C205.481 334.806 200.407 337.384 197.015 338.93C196.487 339.17 196 339.386 195.556 339.578ZM304.967 31.7941C328.81 40.5934 350.022 54.4701 367.422 72.0185C345.336 70.9513 328.999 72.9573 314.531 74.7337L314.531 74.7338L314.526 74.7343C312.018 75.0423 309.567 75.3433 307.151 75.6202C290.161 77.5677 274.437 78.4615 250.823 72.0286C265.458 56.875 278.681 46.9154 288.721 40.5642C295.041 36.5661 300.116 33.9882 303.507 32.4423C304.035 32.2018 304.522 31.9862 304.967 31.7941Z" fill="url(#paint0_radial_148_2)"/>
<path d="M440.623 199.372L440.607 199.359C435.909 195.622 432.753 192.052 430.842 187.917C428.931 183.784 428.419 179.419 428.419 174.414V164.326C428.419 157.922 429.882 151.951 433.75 147.553C437.689 143.073 443.623 140.785 451.337 140.785H497.776V170.291L492.596 166.999C492.217 166.759 491.51 166.489 490.397 166.299C489.323 166.114 488.078 166.037 486.785 166.037H456.637C456.294 166.037 456.117 166.093 456.05 166.121C456.028 166.13 456.012 166.138 455.998 166.147C455.98 166.16 455.965 166.174 455.949 166.194C455.868 166.292 455.536 166.811 455.536 168.295V174.579C455.536 176.457 456.006 177.191 456.632 177.645L456.707 177.7L488.086 203.226C492.783 207.046 495.931 210.655 497.838 214.781C499.746 218.908 500.261 223.228 500.261 228.16V239.736C500.261 246.14 498.798 252.111 494.93 256.51C490.991 260.989 485.057 263.277 477.343 263.277H428.254V233.772L433.434 237.063C433.812 237.303 434.52 237.573 435.633 237.764C436.707 237.948 437.952 238.025 439.244 238.025H471.546C472.074 238.025 472.386 237.951 472.548 237.891C472.689 237.839 472.732 237.794 472.753 237.769C472.809 237.707 473.144 237.259 473.144 235.767V227.995C473.144 226.381 472.725 225.488 471.896 224.811L440.623 199.372Z" fill="url(#paint1_radial_148_2)"/>
<path d="M346.121 140.785H319.005V239.736C319.005 246.14 320.468 252.111 324.335 256.51C328.275 260.989 334.208 263.277 341.922 263.277H374.223C381.937 263.277 387.871 260.989 391.81 256.51C395.678 252.111 397.141 246.14 397.141 239.736V140.785H370.024V235.767C370.024 237.259 369.689 237.707 369.633 237.769C369.612 237.794 369.569 237.839 369.428 237.891C369.266 237.951 368.954 238.025 368.426 238.025H347.554C347.085 238.025 346.818 237.956 346.687 237.906C346.577 237.864 346.542 237.828 346.519 237.801C346.455 237.728 346.121 237.257 346.121 235.767V140.785Z" fill="url(#paint2_radial_148_2)"/>
<path d="M297.345 263.277H265.317L247.623 223.826L229.929 263.277H199.184L231.742 200.366L201.376 140.785H233.469L248.753 177.346L263.747 140.785H294.669L264.983 199.708L297.345 263.277Z" fill="url(#paint3_radial_148_2)"/>
<path d="M176.151 239.183H139.931V211.019H164.224C165.477 211.019 166.912 211.159 168.367 211.45L172.398 212.255V186.185L168.367 186.99C166.912 187.28 165.477 187.42 164.224 187.42H139.931V164.879H173.666C174.889 164.879 176.132 165.013 177.483 165.504L182.006 167.146V140.785H112.815V263.277H184.325V236.75L179.702 238.596C178.588 239.041 177.401 239.183 176.151 239.183Z" fill="url(#paint4_radial_148_2)"/>
<path d="M25.8862 263.277H0.260742V140.785H26.7799L52.6057 204.835V140.785H78.3968V263.277H51.882L25.8862 199.143V263.277Z" fill="url(#paint5_radial_148_2)"/>
<path d="M74.3892 118.379L33.8711 122.636L69.5656 122.636L74.3892 118.379Z" fill="url(#paint6_radial_148_2)"/>
<path d="M466.064 122.636L425.546 118.379L430.37 122.636L466.064 122.636Z" fill="url(#paint7_radial_148_2)"/>
<path fill-rule="evenodd" clip-rule="evenodd" d="M100.214 107.022H113.14C113.43 107.022 113.604 107.138 113.72 107.427L118.357 119.695C118.647 120.389 118.241 120.91 117.835 121.026C117.256 121.084 117.024 121.2 117.024 121.547C117.024 121.918 117.61 121.949 118.512 121.996L118.514 121.996C118.594 122.001 118.677 122.005 118.763 122.01C123.4 122.125 127.631 122.125 129.718 122.125H129.718C131.863 122.125 132.385 122.01 132.385 121.547C132.385 121.142 132.095 121.084 131.631 121.084C130.935 121.084 130.066 121.026 129.197 120.852C127.979 120.563 126.298 119.753 124.096 114.545C122.013 109.607 118.176 99.9999 114.965 91.9595L114.962 91.9514L114.962 91.9509L114.955 91.9324L114.953 91.9273L114.952 91.9255C112.449 85.6591 110.329 80.3507 109.72 78.9573C109.141 77.6264 108.793 77.1056 108.271 77.1056C107.692 77.1056 107.344 77.7421 106.648 79.4202L92.0992 115.76C90.9399 118.653 89.8386 120.621 87.1722 120.968C86.7085 121.026 85.897 121.084 85.3753 121.084C84.9116 121.084 84.6797 121.2 84.6797 121.547C84.6797 122.01 85.0275 122.125 85.781 122.125C87.8452 122.125 89.9909 122.044 91.3431 121.993L91.3436 121.993L91.3441 121.993L91.3461 121.993C91.9668 121.969 92.4203 121.952 92.6209 121.952C93.5121 121.952 94.5745 121.995 95.6454 122.038C96.7334 122.081 97.8303 122.125 98.7651 122.125C99.4027 122.125 99.7505 122.01 99.7505 121.547C99.7505 121.2 99.5766 121.084 98.881 121.084H98.0116C96.2147 121.084 95.693 120.332 95.693 119.29C95.693 118.596 95.9828 117.207 96.5624 115.76L99.6925 107.485C99.8085 107.138 99.9244 107.022 100.214 107.022ZM112.039 104.129H101.374C101.142 104.129 101.084 103.956 101.142 103.724L106.474 89.489C106.532 89.2575 106.648 88.9682 106.822 88.9682C106.984 88.9682 107.045 89.2181 107.1 89.4392C107.104 89.456 107.108 89.4726 107.112 89.489L112.329 103.782C112.387 103.956 112.329 104.129 112.039 104.129Z" fill="url(#paint8_radial_148_2)"/>
<path fill-rule="evenodd" clip-rule="evenodd" d="M146.597 95.1599V105.344C146.597 110.668 146.597 115.239 146.307 117.67C146.076 119.348 145.786 120.621 144.626 120.852C144.105 120.968 143.409 121.084 142.54 121.084C141.844 121.084 141.612 121.257 141.612 121.547C141.612 121.952 142.018 122.125 142.772 122.125C144.144 122.125 145.984 122.065 147.485 122.015C148.52 121.981 149.394 121.952 149.843 121.952C150.136 121.952 150.818 121.972 151.722 121.998L151.722 121.998C153.499 122.049 156.135 122.125 158.364 122.125C159.118 122.125 159.523 121.952 159.523 121.547C159.523 121.257 159.291 121.084 158.828 121.084C158.132 121.084 156.857 120.968 155.987 120.852C154.249 120.621 153.901 119.348 153.727 117.67C153.437 115.239 153.437 110.668 153.437 105.286V104.476C153.437 104.129 153.611 104.013 153.901 104.013L158.944 104.129C159.349 104.129 159.697 104.187 159.987 104.534C160.421 105.034 161.489 106.55 162.759 108.354L162.76 108.355L162.76 108.355L162.761 108.357L162.762 108.358C163.698 109.687 164.743 111.171 165.726 112.52C168.972 116.975 171.174 119.695 173.667 121.026C175.174 121.836 176.623 122.125 179.869 122.125H185.376C186.071 122.125 186.477 122.01 186.477 121.547C186.477 121.257 186.245 121.084 185.781 121.084C185.318 121.084 184.796 121.026 184.158 120.91L184.095 120.898C183.177 120.716 180.836 120.253 177.666 116.975C174.706 113.87 171.312 109.595 167.108 104.299C166.455 103.476 165.782 102.628 165.088 101.757C170.942 97.0116 172.739 93.0767 172.739 88.7946C172.739 84.9175 170.421 81.9664 168.798 80.8669C165.668 78.7258 161.784 78.3786 158.132 78.3786C157.254 78.3786 155.754 78.4201 154.22 78.4624C152.613 78.5068 150.967 78.5522 149.959 78.5522C149.489 78.5522 148.655 78.5263 147.632 78.4945C146.007 78.444 143.903 78.3786 142.018 78.3786C141.149 78.3786 140.743 78.4944 140.743 78.8994C140.743 79.3045 141.091 79.4202 141.728 79.4202C142.54 79.4202 143.525 79.4781 143.989 79.5938C145.902 79.9989 146.365 80.9248 146.481 82.8922C146.597 84.7439 146.597 86.3642 146.597 95.1599ZM153.437 99.7313V82.14C153.437 81.677 153.553 81.4456 153.959 81.3298C154.538 81.1562 155.582 81.0984 157.031 81.0984C160.451 81.0984 165.899 83.4709 165.899 91.6879C165.899 96.4329 164.218 99.0948 162.48 100.368C161.436 101.12 160.683 101.352 158.364 101.352C156.915 101.352 155.176 101.178 153.959 100.773C153.553 100.599 153.437 100.368 153.437 99.7313Z" fill="url(#paint9_radial_148_2)"/>
<path d="M194.875 116.339L200.613 78.6101C200.787 77.6264 201.135 77.1056 201.599 77.1056C202.063 77.1056 202.41 77.3949 203.164 78.8994L218.988 111.536L234.755 78.4944C235.218 77.5685 235.508 77.1056 236.03 77.1056C236.551 77.1056 236.899 77.6843 237.073 78.8994L242.348 114.661C242.87 118.306 243.449 119.984 245.188 120.505C246.869 121.026 248.028 121.084 248.782 121.084C249.304 121.084 249.709 121.142 249.709 121.489C249.709 121.952 249.014 122.125 248.202 122.125C246.753 122.125 238.754 121.952 236.436 121.778C235.102 121.663 234.755 121.489 234.755 121.142C234.755 120.852 234.986 120.679 235.392 120.505C235.74 120.389 235.914 119.637 235.682 118.017L232.204 92.5559H231.972L219.336 118.827C218.003 121.547 217.713 122.068 217.191 122.068C216.704 122.068 216.166 121.058 215.342 119.511L215.3 119.432C215.255 119.348 215.209 119.262 215.163 119.174C213.771 116.512 209.192 107.659 208.497 106.039C208.178 105.298 206.761 102.297 205.243 99.0843L205.24 99.0766C204.27 97.0232 203.259 94.8837 202.468 93.1924H202.236L199.222 116.223C199.106 117.265 199.048 118.017 199.048 118.943C199.048 120.042 199.802 120.563 200.787 120.795C201.831 121.026 202.642 121.084 203.222 121.084C203.686 121.084 204.091 121.2 204.091 121.489C204.091 122.01 203.57 122.125 202.7 122.125C201.229 122.125 199.694 122.062 198.48 122.012C197.685 121.979 197.027 121.952 196.614 121.952C196.135 121.952 195.337 121.985 194.436 122.022C193.266 122.07 191.923 122.125 190.875 122.125C190.296 122.125 189.832 122.01 189.832 121.489C189.832 121.2 190.18 121.084 190.759 121.084C191.223 121.084 191.629 121.084 192.498 120.91C194.121 120.563 194.585 118.306 194.875 116.339Z" fill="url(#paint10_radial_148_2)"/>
<path fill-rule="evenodd" clip-rule="evenodd" d="M269.924 107.022H282.85C283.14 107.022 283.314 107.138 283.429 107.427L288.067 119.695C288.356 120.389 287.951 120.91 287.545 121.026C286.965 121.084 286.733 121.2 286.733 121.547C286.733 121.918 287.319 121.949 288.222 121.996L288.223 121.996C288.304 122.001 288.387 122.005 288.472 122.01C293.109 122.125 297.34 122.125 299.427 122.125H299.428C301.572 122.125 302.094 122.01 302.094 121.547C302.094 121.142 301.804 121.084 301.341 121.084C300.645 121.084 299.775 121.026 298.906 120.852C297.689 120.563 296.008 119.753 293.805 114.545C291.722 109.605 287.883 99.9928 284.671 91.9506L284.67 91.946C282.164 85.6706 280.04 80.3522 279.43 78.9573C278.85 77.6264 278.502 77.1056 277.981 77.1056C277.401 77.1056 277.053 77.7421 276.358 79.4202L261.809 115.76C260.649 118.653 259.548 120.621 256.882 120.968C256.418 121.026 255.606 121.084 255.085 121.084C254.621 121.084 254.389 121.2 254.389 121.547C254.389 122.01 254.737 122.125 255.491 122.125C257.555 122.125 259.701 122.044 261.054 121.993C261.675 121.969 262.129 121.952 262.33 121.952C263.222 121.952 264.284 121.995 265.355 122.038C266.443 122.081 267.54 122.125 268.475 122.125C269.112 122.125 269.46 122.01 269.46 121.547C269.46 121.2 269.286 121.084 268.59 121.084H267.721C265.924 121.084 265.402 120.332 265.402 119.29C265.402 118.596 265.692 117.207 266.272 115.76L269.402 107.485C269.518 107.138 269.634 107.022 269.924 107.022ZM281.748 104.129H271.083C270.851 104.129 270.793 103.956 270.851 103.724L276.184 89.489C276.242 89.2575 276.358 88.9682 276.532 88.9682C276.693 88.9682 276.755 89.218 276.809 89.4391C276.813 89.4559 276.817 89.4726 276.822 89.489L282.038 103.782C282.096 103.956 282.038 104.129 281.748 104.129Z" fill="url(#paint11_radial_148_2)"/>
<path fill-rule="evenodd" clip-rule="evenodd" d="M316.307 105.344V95.1599C316.307 86.3642 316.307 84.7439 316.191 82.8922C316.075 80.9248 315.611 79.9989 313.698 79.5938C313.235 79.4781 312.249 79.4202 311.438 79.4202C310.8 79.4202 310.452 79.3045 310.452 78.8994C310.452 78.4944 310.858 78.3786 311.728 78.3786C313.507 78.3786 315.48 78.4369 317.141 78.4859C318.349 78.5215 319.391 78.5522 320.074 78.5522C320.826 78.5522 321.902 78.5219 323.154 78.4866C324.895 78.4374 326.978 78.3786 329.001 78.3786C336.247 78.3786 345.927 78.3786 352.245 84.9754C355.143 87.9844 357.867 92.7873 357.867 99.6734C357.867 106.965 354.795 112.52 351.549 115.818C348.883 118.538 342.854 122.646 332.131 122.646C330.044 122.646 327.668 122.473 325.465 122.299L324.825 122.248C322.872 122.093 321.092 121.952 319.785 121.952C319.147 121.952 317.872 121.952 316.481 122.01C315.791 122.01 315.054 122.041 314.344 122.071C313.681 122.098 313.04 122.125 312.481 122.125C311.727 122.125 311.322 121.952 311.322 121.547C311.322 121.257 311.554 121.084 312.249 121.084C313.119 121.084 313.814 120.968 314.336 120.852C315.495 120.621 315.785 119.348 316.017 117.67C316.307 115.239 316.307 110.668 316.307 105.344ZM323.552 94.234V101.525C323.552 107.659 323.61 112.115 323.668 113.214C323.726 114.661 323.842 116.975 324.306 117.612C325.059 118.711 327.32 119.927 331.899 119.927C337.812 119.927 341.753 118.769 345.231 115.76C348.941 112.578 350.1 107.312 350.1 101.352C350.1 94.0025 347.028 89.2575 344.536 86.885C339.203 81.7928 332.595 81.0984 328.074 81.0984C326.914 81.0984 324.77 81.272 324.306 81.5034C323.784 81.7349 323.61 82.0242 323.61 82.6608C323.552 84.6282 323.552 89.6626 323.552 94.234Z" fill="url(#paint12_radial_148_2)"/>
<path fill-rule="evenodd" clip-rule="evenodd" d="M380.969 107.022H393.895C394.185 107.022 394.359 107.138 394.475 107.427L399.112 119.695C399.402 120.389 398.996 120.91 398.59 121.026C398.01 121.084 397.779 121.2 397.779 121.547C397.779 121.918 398.364 121.949 399.267 121.996C399.348 122.001 399.432 122.005 399.518 122.01C404.154 122.125 408.385 122.125 410.472 122.125H410.473C412.618 122.125 413.139 122.01 413.139 121.547C413.139 121.142 412.849 121.084 412.386 121.084C411.69 121.084 410.821 121.026 409.951 120.852C408.734 120.563 407.053 119.753 404.85 114.545C402.767 109.605 398.929 99.9939 395.717 91.952L395.715 91.9469L395.714 91.9453L395.712 91.9388L395.711 91.9376C393.207 85.6659 391.084 80.3515 390.475 78.9573C389.895 77.6264 389.548 77.1056 389.026 77.1056C388.446 77.1056 388.098 77.7421 387.403 79.4202L372.854 115.76C371.695 118.653 370.593 120.621 367.927 120.968C367.463 121.026 366.652 121.084 366.13 121.084C365.666 121.084 365.434 121.2 365.434 121.547C365.434 122.01 365.782 122.125 366.536 122.125C368.6 122.125 370.746 122.044 372.099 121.993C372.721 121.969 373.175 121.952 373.376 121.952C374.267 121.952 375.329 121.995 376.4 122.038C377.488 122.081 378.585 122.125 379.52 122.125C380.157 122.125 380.505 122.01 380.505 121.547C380.505 121.2 380.331 121.084 379.636 121.084H378.766C376.969 121.084 376.448 120.332 376.448 119.29C376.448 118.596 376.738 117.207 377.317 115.76L380.447 107.485C380.563 107.138 380.679 107.022 380.969 107.022ZM392.794 104.129H382.128C381.896 104.129 381.838 103.956 381.896 103.724L387.229 89.489C387.287 89.2575 387.403 88.9682 387.577 88.9682C387.738 88.9682 387.8 89.2182 387.854 89.4393L387.867 89.489L393.083 103.782C393.141 103.956 393.083 104.129 392.794 104.129Z" fill="url(#paint13_radial_148_2)"/>
<path d="M466.063 281.41L249.966 294.267L33.8691 281.41H466.063Z" fill="url(#paint14_radial_148_2)"/>
<defs>
<radialGradient id="paint0_radial_148_2" cx="0" cy="0" r="1" gradientUnits="userSpaceOnUse" gradientTransform="translate(250.261 185.686) rotate(90) scale(218.344)">
<stop stop-color="white" stop-opacity="0.4"/>
<stop offset="1" stop-color="white" stop-opacity="0"/>
</radialGradient>
<radialGradient id="paint1_radial_148_2" cx="0" cy="0" r="1" gradientUnits="userSpaceOnUse" gradientTransform="translate(250.261 202.031) rotate(90) scale(92.2827 270.755)">
<stop stop-color="white"/>
<stop offset="1" stop-color="white" stop-opacity="0.85"/>
</radialGradient>
<radialGradient id="paint2_radial_148_2" cx="0" cy="0" r="1" gradientUnits="userSpaceOnUse" gradientTransform="translate(250.261 202.031) rotate(90) scale(92.2827 270.755)">
<stop stop-color="white"/>
<stop offset="1" stop-color="white" stop-opacity="0.85"/>
</radialGradient>
<radialGradient id="paint3_radial_148_2" cx="0" cy="0" r="1" gradientUnits="userSpaceOnUse" gradientTransform="translate(250.261 202.031) rotate(90) scale(92.2827 270.755)">
<stop stop-color="white"/>
<stop offset="1" stop-color="white" stop-opacity="0.85"/>
</radialGradient>
<radialGradient id="paint4_radial_148_2" cx="0" cy="0" r="1" gradientUnits="userSpaceOnUse" gradientTransform="translate(250.261 202.031) rotate(90) scale(92.2827 270.755)">
<stop stop-color="white"/>
<stop offset="1" stop-color="white" stop-opacity="0.85"/>
</radialGradient>
<radialGradient id="paint5_radial_148_2" cx="0" cy="0" r="1" gradientUnits="userSpaceOnUse" gradientTransform="translate(250.261 202.031) rotate(90) scale(92.2827 270.755)">
<stop stop-color="white"/>
<stop offset="1" stop-color="white" stop-opacity="0.85"/>
</radialGradient>
<radialGradient id="paint6_radial_148_2" cx="0" cy="0" r="1" gradientUnits="userSpaceOnUse" gradientTransform="translate(249.968 120.508) rotate(90) scale(3.20713 234.037)">
<stop stop-color="white"/>
<stop offset="1" stop-color="white" stop-opacity="0.85"/>
</radialGradient>
<radialGradient id="paint7_radial_148_2" cx="0" cy="0" r="1" gradientUnits="userSpaceOnUse" gradientTransform="translate(249.968 120.508) rotate(90) scale(3.20713 234.037)">
<stop stop-color="white"/>
<stop offset="1" stop-color="white" stop-opacity="0.85"/>
</radialGradient>
<radialGradient id="paint8_radial_148_2" cx="0" cy="0" r="1" gradientUnits="userSpaceOnUse" gradientTransform="translate(248.909 99.8759) rotate(90) scale(34.3092 177.864)">
<stop stop-color="white"/>
<stop offset="1" stop-color="white" stop-opacity="0.85"/>
</radialGradient>
<radialGradient id="paint9_radial_148_2" cx="0" cy="0" r="1" gradientUnits="userSpaceOnUse" gradientTransform="translate(248.909 99.8759) rotate(90) scale(34.3092 177.864)">
<stop stop-color="white"/>
<stop offset="1" stop-color="white" stop-opacity="0.85"/>
</radialGradient>
<radialGradient id="paint10_radial_148_2" cx="0" cy="0" r="1" gradientUnits="userSpaceOnUse" gradientTransform="translate(248.909 99.8759) rotate(90) scale(34.3092 177.864)">
<stop stop-color="white"/>
<stop offset="1" stop-color="white" stop-opacity="0.85"/>
</radialGradient>
<radialGradient id="paint11_radial_148_2" cx="0" cy="0" r="1" gradientUnits="userSpaceOnUse" gradientTransform="translate(248.909 99.8759) rotate(90) scale(34.3092 177.864)">
<stop stop-color="white"/>
<stop offset="1" stop-color="white" stop-opacity="0.85"/>
</radialGradient>
<radialGradient id="paint12_radial_148_2" cx="0" cy="0" r="1" gradientUnits="userSpaceOnUse" gradientTransform="translate(248.909 99.8759) rotate(90) scale(34.3092 177.864)">
<stop stop-color="white"/>
<stop offset="1" stop-color="white" stop-opacity="0.85"/>
</radialGradient>
<radialGradient id="paint13_radial_148_2" cx="0" cy="0" r="1" gradientUnits="userSpaceOnUse" gradientTransform="translate(248.909 99.8759) rotate(90) scale(34.3092 177.864)">
<stop stop-color="white"/>
<stop offset="1" stop-color="white" stop-opacity="0.85"/>
</radialGradient>
<radialGradient id="paint14_radial_148_2" cx="0" cy="0" r="1" gradientUnits="userSpaceOnUse" gradientTransform="translate(249.966 287.838) rotate(90) scale(9.68616 234.037)">
<stop stop-color="white"/>
<stop offset="1" stop-color="white" stop-opacity="0.85"/>
</radialGradient>
</defs>
</svg>
